# xmcd
#
# Track frame offsets:
#	150
#	15430
#	29815
#	43780
#	57152
#	71162
#	89320
#	102052
#	119262
#	133067
#	145647
#	160452
#	174477
#	187305
#	200247
#	211865
#	223972
#	235167
#
# Disc length: 3350 seconds
#
# Revision: 1
# Processed by: cddbd v1.5.2PL0 Copyright (c) Steve Scherf et al.
# Submitted via: audiograbber 1.83.01
#
DISCID=150d1412
DTITLE=Teuvo Valo - Parhaat - 18 Iskelmää
DYEAR=1998
DGENRE=Pop
TTITLE0=Rakkaus Suuri Rakkaus
TTITLE1=Yölintu
TTITLE2=Sä Et Kyyneltä Nää
TTITLE3=Laulajan Ystävä
TTITLE4=En Pyydä Anteeksi
TTITLE5=Kätketyt Tunteet
TTITLE6=Liian Nuori
TTITLE7=Saavuthan Jälleen Roomaan
TTITLE8=Yö Kerran Unhoa Annoit
TTITLE9=Iloinen Meripoika
TTITLE10=Keväinen Rakkaus
TTITLE11=Punaiset Lehdet
TTITLE12=Rakasta Tai Hylkää
TTITLE13=Tartu Käteen
TTITLE14=Huoleton Humppa
TTITLE15=Puuseppä
TTITLE16=Terveiset Lahdesta
TTITLE17=Miehen Ikään
EXTD=TR.
EXTT0=
EXTT1=
EXTT2=
EXTT3=
EXTT4=
EXTT5=
EXTT6=
EXTT7=
EXTT8=
EXTT9=
EXTT10=
EXTT11=
EXTT12=
EXTT13=
EXTT14=
EXTT15=
EXTT16=
EXTT17=
PLAYORDER=
